<?xml version="1.0" standalone="no"?>
<!DOCTYPE svg PUBLIC "-//W3C//DTD SVG 20010904//EN"
 "http://www.w3.org/TR/2001/REC-SVG-20010904/DTD/svg10.dtd">
<svg version="1.0" xmlns="http://www.w3.org/2000/svg"
 width="700.000000pt" height="700.000000pt" viewBox="0 0 700.000000 700.000000"
 preserveAspectRatio="xMidYMid meet">
<metadata>
Created by potrace 1.14, written by Peter Selinger 2001-2017
</metadata>
<g transform="translate(0.000000,700.000000) scale(0.100000,-0.100000)"
fill="#000000" stroke="none">
<path d="M2955 6980 c-641 -101 -1209 -354 -1704 -757 -140 -114 -375 -351
-485 -488 -410 -512 -649 -1094 -717 -1745 -19 -177 -15 -742 5 -915 63 -525
234 -997 516 -1424 765 -1161 2156 -1747 3560 -1500 926 163 1761 704 2277
1477 296 443 470 923 535 1477 17 148 17 751 -1 905 -65 579 -264 1102 -591
1560 -494 691 -1230 1176 -2071 1364 -270 60 -337 66 -794 65 -348 -1 -439 -4
-530 -19z m-1332 -2914 l46 -25 3 22 c2 16 11 23 31 25 l27 3 0 -80 0 -81 -29
0 c-22 0 -36 8 -52 31 -25 36 -90 68 -135 69 -17 0 -50 -10 -74 -23 -116 -61
-122 -249 -11 -324 47 -32 125 -32 172 0 30 20 72 71 81 99 3 7 15 5 36 -6
l32 -17 -19 -37 c-61 -117 -205 -165 -326 -108 -91 43 -134 116 -135 229 0
151 92 246 241 247 51 0 76 -6 112 -24z m565 -2 c154 -77 177 -301 42 -416
-126 -109 -333 -61 -398 92 -20 48 -19 155 2 205 22 52 71 103 121 126 62 29
167 26 233 -7z m362 -9 c0 -31 -3 -35 -25 -35 -14 0 -25 -3 -25 -7 0 -5 20
-75 44 -158 28 -98 45 -143 49 -130 23 75 77 275 77 284 0 6 -11 11 -25 11
-22 0 -25 4 -25 35 l0 35 110 0 110 0 0 -35 c0 -31 -3 -35 -25 -35 -14 0 -25
-2 -25 -5 0 -8 82 -299 85 -303 3 -3 85 283 85 298 0 5 -11 10 -25 10 -22 0
-25 4 -25 35 l0 35 91 0 90 0 -3 -32 c-2 -28 -8 -34 -30 -36 -30 -4 -29 1
-103 -267 -20 -71 -38 -138 -41 -147 -4 -13 -16 -18 -39 -18 -38 0 -30 -20
-105 245 -17 61 -34 117 -37 125 -4 12 -40 -102 -103 -332 -10 -35 -14 -38
-45 -38 -39 0 -27 -28 -110 263 -48 166 -48 167 -76 167 -26 0 -29 3 -29 35
l0 35 90 0 90 0 0 -35z m976 0 c170 -106 143 -386 -43 -449 -181 -62 -343 50
-343 237 0 77 14 118 59 169 53 60 103 80 197 76 69 -3 87 -7 130 -33z m419
25 c82 -13 115 -48 115 -121 0 -44 -4 -55 -32 -83 -18 -18 -40 -35 -48 -38
-12 -4 -7 -22 27 -92 40 -80 45 -86 73 -86 27 0 30 -3 30 -30 0 -30 0 -30 -56
-30 l-55 0 -52 110 -52 109 -37 1 -38 0 0 -79 0 -80 33 -3 c27 -2 33 -8 35
-30 l3 -28 -105 0 -106 0 0 30 c0 28 3 30 35 30 l35 0 0 179 0 180 -32 3 c-33
3 -46 23 -34 54 6 17 165 20 261 4z m380 -25 c0 -27 -4 -30 -32 -33 l-33 -3 0
-180 0 -179 30 0 c27 0 30 -3 30 -30 l0 -30 -95 0 -95 0 0 30 c0 27 3 30 30
30 l30 0 0 180 0 180 -30 0 c-28 0 -30 3 -30 35 l0 36 98 -3 97 -3 0 -30z
m235 0 c0 -32 -3 -35 -28 -35 -22 0 -43 -16 -100 -79 -40 -44 -72 -82 -72 -86
0 -3 34 -49 75 -101 59 -73 81 -94 100 -94 21 0 25 -5 25 -30 l0 -30 -95 0
-95 0 0 30 c0 23 4 30 20 30 11 0 20 2 20 5 0 3 -31 47 -69 97 l-69 92 69 77
c38 42 69 79 69 83 0 3 -9 6 -20 6 -16 0 -20 7 -20 35 l0 35 95 0 95 0 0 -35z
m210 0 c0 -31 -3 -35 -25 -35 l-25 0 0 -180 0 -180 25 0 c21 0 25 -5 25 -30
l0 -30 -90 0 -90 0 0 30 c0 27 3 30 30 30 l30 0 0 179 0 180 -27 3 c-28 3 -40
25 -29 54 4 11 26 14 91 14 l85 0 0 -35z m218 8 c10 -16 58 -99 107 -185 48
-87 89 -158 91 -158 2 0 4 67 4 149 l0 150 -32 3 c-29 3 -33 7 -36 36 l-3 32
100 0 101 0 0 -35 c0 -33 -2 -35 -35 -35 l-35 0 0 -215 0 -215 -37 0 -38 0
-80 143 c-43 78 -96 171 -117 207 l-38 65 0 -172 0 -173 35 0 c32 0 35 -2 35
-30 l0 -30 -100 0 -100 0 0 30 c0 28 3 30 35 30 l35 0 0 180 0 180 -35 0 c-33
0 -35 2 -35 35 l0 35 79 0 c76 0 81 -1 99 -27z m748 2 c27 -14 50 -25 52 -25
1 0 2 11 2 25 0 21 5 25 30 25 l30 0 0 -80 0 -80 -30 0 c-22 0 -39 9 -61 34
-64 73 -176 85 -244 25 -96 -85 -79 -261 32 -314 53 -26 131 -24 177 5 31 18
66 64 66 85 0 3 -20 5 -45 5 -43 0 -45 1 -45 30 l0 30 90 0 c87 0 90 -1 90
-23 0 -85 -77 -182 -165 -207 -60 -17 -160 -8 -212 18 -138 71 -175 260 -76
390 61 80 210 107 309 57z m-1836 -803 c96 -48 146 -163 121 -278 -16 -70 -63
-131 -126 -163 -40 -21 -64 -26 -125 -26 -64 0 -82 4 -123 28 -95 56 -142 165
-119 276 35 168 207 244 372 163z m-1730 -48 l0 -75 -27 3 c-25 3 -28 7 -31
46 l-3 43 -102 -3 -102 -3 0 -70 0 -70 93 -3 92 -3 0 -29 0 -30 -95 0 -95 0 0
-80 0 -80 105 0 105 0 0 45 c0 43 1 45 30 45 l30 0 0 -75 0 -75 -200 0 -200 0
0 30 c0 27 3 30 30 30 l30 0 0 185 0 185 -30 0 c-27 0 -30 3 -30 30 l0 30 200
0 200 0 0 -76z m240 46 c0 -25 -4 -30 -25 -30 -14 0 -25 -2 -25 -5 0 -4 19
-33 42 -65 l42 -60 38 58 c21 31 38 60 38 65 0 4 -11 7 -25 7 -21 0 -25 5 -25
30 l0 30 95 0 95 0 0 -30 c0 -27 -3 -30 -30 -30 -26 0 -37 -10 -91 -91 l-61
-91 53 -77 c72 -105 78 -111 111 -111 24 0 28 -4 28 -30 l0 -30 -100 0 -100 0
0 30 c0 25 4 30 25 30 14 0 25 2 25 6 0 3 -18 32 -41 65 l-41 61 -43 -64 -42
-63 28 -3 c25 -3 29 -8 29 -33 l0 -29 -100 0 -100 0 0 30 c0 27 3 30 34 30 31
0 38 6 95 89 34 49 61 92 61 96 0 3 -28 46 -62 96 -53 76 -66 89 -90 89 -24 0
-28 4 -28 30 l0 30 95 0 95 0 0 -30z m600 5 c88 -51 92 -187 7 -249 -19 -14
-49 -22 -105 -26 l-77 -5 -3 -62 -3 -63 36 0 c32 0 35 -2 35 -30 l0 -30 -100
0 -100 0 0 30 c0 27 3 30 30 30 l30 0 0 185 0 185 -30 0 c-27 0 -30 3 -30 31
l0 31 138 -4 c115 -3 143 -7 172 -23z m300 -5 c0 -27 -3 -30 -30 -30 l-30 0 0
-185 0 -185 80 0 80 0 0 75 0 75 30 0 30 0 0 -105 0 -105 -180 0 -180 0 0 30
c0 27 3 30 30 30 l30 0 0 185 0 185 -30 0 c-27 0 -30 3 -30 30 l0 30 100 0
100 0 0 -30z m1038 19 c63 -13 93 -44 99 -102 7 -55 -16 -101 -60 -123 -17 -9
-33 -18 -35 -19 -2 -2 16 -41 40 -89 40 -82 44 -86 75 -86 30 0 33 -3 33 -30
0 -30 0 -30 -58 -30 l-59 0 -53 115 c-52 113 -54 115 -87 115 l-33 0 0 -85 0
-85 30 0 c27 0 30 -3 30 -30 l0 -30 -100 0 -100 0 0 30 c0 27 3 30 30 30 l30
0 0 185 0 185 -30 0 c-27 0 -30 3 -30 30 l0 30 115 0 c62 0 136 -5 163 -11z
m572 -64 l0 -75 -30 0 c-29 0 -30 2 -30 45 l0 45 -105 0 -105 0 0 -75 0 -75
90 0 90 0 0 -30 0 -30 -90 0 -90 0 0 -80 0 -80 105 0 105 0 0 45 c0 43 1 45
30 45 l30 0 0 -75 0 -75 -205 0 -205 0 0 30 c0 28 3 30 35 30 l35 0 -2 183 -3
182 -32 3 c-29 3 -33 7 -33 33 l0 29 205 0 205 0 0 -75z m316 64 c63 -16 94
-56 94 -121 0 -43 -4 -54 -32 -82 -18 -18 -40 -35 -48 -38 -12 -4 -7 -22 27
-92 40 -80 45 -86 73 -86 27 0 30 -3 30 -30 0 -30 0 -30 -56 -30 l-55 0 -55
115 c-55 113 -56 115 -90 115 l-34 0 0 -85 0 -85 30 0 c27 0 30 -3 30 -30 l0
-30 -100 0 -100 0 0 30 c0 28 3 30 35 30 l35 0 0 185 0 185 -35 0 c-32 0 -35
2 -35 30 l0 30 121 0 c66 0 140 -5 165 -11z"/>
<path d="M2012 4023 c-41 -8 -99 -75 -110 -129 -28 -132 44 -237 163 -237 73
0 116 28 151 99 22 46 26 63 21 106 -14 118 -106 183 -225 161z"/>
<path d="M3310 4008 c-61 -31 -90 -83 -90 -162 0 -118 62 -189 166 -189 131 0
213 142 155 268 -22 48 -44 69 -94 90 -50 21 -85 19 -137 -7z"/>
<path d="M3820 3955 l0 -65 61 0 c33 0 69 4 79 10 27 14 35 65 16 95 -15 23
-23 25 -86 25 l-70 0 0 -65z"/>
<path d="M3705 3216 c-74 -32 -115 -123 -97 -214 20 -95 75 -142 167 -142 55
0 93 18 129 60 75 89 47 238 -54 290 -45 23 -101 25 -145 6z"/>
<path d="M2837 3223 c-4 -3 -7 -44 -7 -90 l0 -83 65 0 c80 0 105 19 105 81 0
55 -14 76 -58 89 -42 11 -95 13 -105 3z"/>
<path d="M4210 3161 l0 -71 58 0 c76 0 102 18 102 69 0 51 -16 62 -95 69 l-65
5 0 -72z"/>
<path d="M5090 3161 l0 -71 60 0 c51 0 65 4 85 25 30 29 32 55 7 85 -14 17
-32 23 -85 27 l-67 6 0 -72z"/>
</g>
</svg>
