<?xml version="1.0" standalone="no"?>
<!DOCTYPE svg PUBLIC "-//W3C//DTD SVG 20010904//EN"
 "http://www.w3.org/TR/2001/REC-SVG-20010904/DTD/svg10.dtd">
<svg version="1.0" xmlns="http://www.w3.org/2000/svg"
 width="700.000000pt" height="700.000000pt" viewBox="0 0 700.000000 700.000000"
 preserveAspectRatio="xMidYMid meet">
<metadata>
Created by potrace 1.14, written by Peter Selinger 2001-2017
</metadata>
<g transform="translate(0.000000,700.000000) scale(0.100000,-0.100000)"
fill="#000000" stroke="none">
<path d="M3040 6994 c-14 -2 -50 -9 -80 -14 -30 -6 -75 -13 -100 -16 -103 -13
-480 -113 -575 -153 -11 -5 -47 -19 -80 -31 -94 -36 -324 -141 -390 -178 -33
-19 -80 -46 -105 -59 -101 -56 -303 -196 -425 -293 -127 -102 -392 -357 -470
-454 -277 -341 -448 -636 -586 -1009 -17 -45 -32 -89 -34 -97 -2 -8 -8 -27
-14 -43 -9 -22 -40 -139 -56 -207 -37 -155 -69 -356 -81 -505 -9 -120 -10
-602 0 -740 23 -340 106 -685 248 -1029 31 -73 143 -296 190 -375 189 -321
426 -605 709 -847 162 -139 368 -287 489 -352 25 -14 52 -30 60 -37 31 -25
280 -145 413 -199 186 -75 446 -156 587 -182 14 -2 35 -7 48 -9 40 -9 185 -33
241 -40 30 -4 62 -8 72 -10 120 -23 635 -23 789 0 14 2 61 9 105 15 157 22
242 39 405 80 122 31 345 104 445 147 33 14 76 32 95 40 78 34 291 144 380
198 90 54 279 181 290 194 3 3 32 26 65 50 186 139 410 365 603 607 139 174
307 459 420 714 58 130 146 408 188 593 17 72 55 337 61 422 15 206 7 768 -12
886 -2 13 -6 44 -9 69 -9 71 -21 136 -51 282 -8 40 -56 210 -80 284 -47 144
-108 287 -194 459 -214 424 -527 806 -907 1104 -49 39 -94 75 -100 80 -27 22
-255 171 -319 208 -354 206 -814 369 -1205 429 -25 3 -54 9 -65 12 -23 6 -928
12 -965 6z"/>
</g>
</svg>
