<?xml version="1.0" encoding="UTF-8" standalone="no"?> <!-- Created with Vectornator for iOS (http://vectornator.io/) --><!DOCTYPE svg PUBLIC "-//W3C//DTD SVG 1.1//EN" "http://www.w3.org/Graphics/SVG/1.1/DTD/svg11.dtd">
<svg viewBox="0 0 400 400" xml:space="preserve" version="1.1" style="fill-rule:nonzero;clip-rule:evenodd;stroke-linecap:round;stroke-linejoin:round;" xmlns:vectornator="http://vectornator.io" xmlns="http://www.w3.org/2000/svg" width="100%" xmlns:xlink="http://www.w3.org/1999/xlink" height="100%">
<metadata>
<vectornator:setting value="Pixels" key="WDUnits"/>
<vectornator:setting value="false" key="WDDynamicGuides"/>
<vectornator:setting key="WDOutlineMode" value="false"/>
<vectornator:setting value="false" key="WDDisplayWhiteBackground"/>
<vectornator:setting value="false" key="WDCMYKEnabledKey"/>
<vectornator:setting key="UndoHistoryDisabled" value="false"/>
<vectornator:setting value="true" key="WDGuidesVisible"/>
<vectornator:setting key="WDRulersVisible" value="true"/>
<vectornator:setting value="false" key="IsTimeLapseWatermarkDisabled"/>
<vectornator:setting value="false" key="WDIsolateActiveLayer"/>
<vectornator:setting key="VNSnapToGuides" value="true"/>
<vectornator:setting key="WDSnapToEdges" value="false"/>
<vectornator:setting value="false" key="WDSnapToGrid"/>
<vectornator:setting value="true" key="VNDimensionsVisible"/>
<vectornator:setting value="false" key="WDSnapToPoints"/>
<vectornator:setting value="false" key="VNPencilOnly"/>
</metadata>
<defs/>
<g id="Ebene 1" vectornator:layerName="Ebene 1">
<path stroke="#6051dc" fill="#6051dc" stroke-linejoin="round" d="M199.77-0.694011L199.77-0.694011C308.73-0.694011+397.059+84.4592+397.059+189.501L397.059+203.934C397.059+308.975+308.73+394.129+199.77+394.129L199.77+394.129C90.8103+394.129+2.4809+308.975+2.4809+203.934L2.4809+189.501C2.4809+84.4592+90.8103-0.694011+199.77-0.694011Z" stroke-width="1" opacity="1" stroke-linecap="round"/>
</g>
<g id="Ebene 2" vectornator:layerName="Ebene 2">
<g opacity="1">
<path opacity="1" fill="#ffffff" d="M95.549+169.592L95.549+166.512L99.1115+166.512L99.1115+175.474L95.4747+175.474C94.5594+173.681+93.3038+172.283+91.7081+171.281C90.1124+170.279+88.3621+169.778+86.4572+169.778C84.6141+169.778+82.9689+170.263+81.5216+171.234C80.0743+172.205+78.9456+173.504+78.1354+175.131C77.3252+176.758+76.92+178.505+76.92+180.373C76.92+182.302+77.3437+184.084+78.191+185.716C79.0384+187.349+80.2042+188.654+81.6886+189.631C83.173+190.609+84.8243+191.097+86.6427+191.097C88.8816+191.097+90.8608+190.414+92.5802+189.047C94.2996+187.68+95.5551+185.741+96.3468+183.23L99.9093+185.123C98.9445+188.24+97.2405+190.655+94.7975+192.368C92.3545+194.081+89.4878+194.938+86.1974+194.938C83.4884+194.938+81.0825+194.292+78.9796+192.999C76.8768+191.706+75.2408+189.968+74.0719+187.785C72.903+185.602+72.3185+183.205+72.3185+180.595C72.3185+177.763+72.9153+175.239+74.109+173.025C75.3027+170.811+76.951+169.094+79.0538+167.876C81.1567+166.658+83.5626+166.048+86.2716+166.048C88.09+166.048+89.7661+166.351+91.2999+166.958C92.8338+167.564+94.2501+168.442+95.549+169.592Z"/>
<path fill="#ffffff" d="M132.566+180.41C132.566+183.255+131.938+185.784+130.682+187.999C129.427+190.213+127.692+191.923+125.478+193.129C123.263+194.335+120.746+194.938+117.926+194.938C115.143+194.938+112.669+194.31+110.504+193.055C108.339+191.799+106.654+190.061+105.448+187.841C104.242+185.62+103.639+183.119+103.639+180.335C103.639+177.577+104.254+175.115+105.485+172.951C106.716+170.786+108.414+169.094+110.578+167.876C112.743+166.658+115.205+166.048+117.963+166.048C120.833+166.048+123.375+166.676+125.589+167.932C127.803+169.187+129.519+170.904+130.738+173.081C131.956+175.258+132.566+177.701+132.566+180.41ZM118.093+191.209C120.01+191.209+121.723+190.708+123.233+189.706C124.742+188.704+125.908+187.374+126.73+185.716C127.553+184.059+127.964+182.29+127.964+180.41C127.964+178.492+127.528+176.714+126.656+175.075C125.784+173.436+124.581+172.144+123.047+171.197C121.513+170.251+119.781+169.778+117.852+169.778C115.959+169.778+114.283+170.239+112.823+171.16C111.364+172.082+110.235+173.353+109.437+174.973C108.639+176.594+108.24+178.393+108.24+180.373C108.24+182.475+108.639+184.349+109.437+185.995C110.235+187.64+111.382+188.92+112.879+189.835C114.376+190.751+116.114+191.209+118.093+191.209Z" opacity="1"/>
<path d="M142.622+170.001L147.836+188.388L152.994+170.001L149.654+170.001L149.654+166.512L162.494+166.512L162.494+170.001L159.192+170.001L164.294+188.388L169.526+170.001L166.224+170.001L166.224+166.512L176.484+166.512L176.484+170.001L173.256+170.001L166.187+194.771L162.234+194.771L155.926+172.505L149.654+194.771L145.739+194.771L138.596+170.001L135.293+170.001L135.293+166.512L145.981+166.512L145.981+170.001L142.622+170.001Z" opacity="1" fill="#ffffff"/>
<path fill="#ffffff" d="M208.102+180.41C208.102+183.255+207.474+185.784+206.218+187.999C204.963+190.213+203.228+191.923+201.014+193.129C198.8+194.335+196.282+194.938+193.462+194.938C190.679+194.938+188.205+194.31+186.04+193.055C183.875+191.799+182.19+190.061+180.984+187.841C179.778+185.62+179.175+183.119+179.175+180.335C179.175+177.577+179.79+175.115+181.021+172.951C182.252+170.786+183.95+169.094+186.114+167.876C188.279+166.658+190.741+166.048+193.499+166.048C196.369+166.048+198.911+166.676+201.125+167.932C203.339+169.187+205.056+170.904+206.274+173.081C207.492+175.258+208.102+177.701+208.102+180.41ZM193.629+191.209C195.546+191.209+197.26+190.708+198.769+189.706C200.278+188.704+201.444+187.374+202.266+185.716C203.089+184.059+203.5+182.29+203.5+180.41C203.5+178.492+203.064+176.714+202.192+175.075C201.32+173.436+200.117+172.144+198.583+171.197C197.049+170.251+195.318+169.778+193.388+169.778C191.495+169.778+189.819+170.239+188.359+171.16C186.9+172.082+185.771+173.353+184.973+174.973C184.175+176.594+183.776+178.393+183.776+180.373C183.776+182.475+184.175+184.349+184.973+185.995C185.771+187.64+186.918+188.92+188.415+189.835C189.912+190.751+191.65+191.209+193.629+191.209Z" opacity="1"/>
<path d="M232.223+173.841C232.223+175.635+231.716+177.141+230.701+178.359C229.687+179.578+228.271+180.416+226.452+180.874L231.388+190.986L234.802+190.986L234.802+194.474L228.53+194.474L222.352+181.449L218.437+181.449L218.437+190.986L221.999+190.986L221.999+194.474L210.421+194.474L210.421+190.986L214.206+190.986L214.206+170.001L210.421+170.001L210.421+166.512L222.036+166.512C225.636+166.512+228.234+167.1+229.829+168.275C231.425+169.45+232.223+171.306+232.223+173.841ZM227.862+173.767C227.862+172.468+227.454+171.516+226.638+170.91C225.821+170.304+224.529+170.001+222.76+170.001L218.437+170.001L218.437+177.942L222.5+177.942C224.318+177.942+225.667+177.627+226.545+176.996C227.423+176.365+227.862+175.289+227.862+173.767Z" fill="#ffffff" opacity="1"/>
<path opacity="1" fill="#ffffff" d="M243.671+170.001L243.671+190.986L246.9+190.986L246.9+194.474L235.952+194.474L235.952+190.986L239.441+190.986L239.441+170.001L235.952+170.001L235.952+166.512L247.271+166.512L247.271+170.001L243.671+170.001ZM257.568+170.001L248.903+179.723L257.81+190.986L260.797+190.986L260.797+194.474L249.442+194.474L249.442+190.986L252.522+190.986L244.116+179.853L252.781+170.001L249.553+170.001L249.553+166.512L260.537+166.512L260.537+170.001L257.568+170.001Z"/>
<path opacity="1" d="M269.703+170.001L269.703+190.986L272.746+190.986L272.746+194.474L262.448+194.474L262.448+190.986L265.473+190.986L265.473+170.001L262.448+170.001L262.448+166.512L272.746+166.512L272.746+170.001L269.703+170.001Z" fill="#ffffff"/>
<path opacity="1" fill="#ffffff" d="M296.645+170.001L292.655+170.001L292.655+166.512L304.122+166.512L304.122+170.001L300.022+170.001L300.022+194.771L295.68+194.771L282.265+170.873L282.265+190.986L286.273+190.986L286.273+194.474L274.824+194.474L274.824+190.986L278.814+190.986L278.814+170.001L274.824+170.001L274.824+166.512L284.361+166.512L296.645+188.24L296.645+170.001Z"/>
<path fill="#ffffff" d="M330.804+169.592L330.804+166.512L334.366+166.512L334.366+175.697L330.804+175.697C329.987+173.903+328.698+172.468+326.935+171.392C325.172+170.316+323.32+169.778+321.378+169.778C319.448+169.778+317.729+170.232+316.22+171.142C314.711+172.051+313.539+173.303+312.704+174.899C311.869+176.495+311.451+178.307+311.451+180.335C311.451+182.463+311.89+184.349+312.769+185.995C313.647+187.64+314.868+188.92+316.433+189.835C317.998+190.751+319.782+191.209+321.786+191.209C323.308+191.209+324.721+190.93+326.026+190.374C327.331+189.817+328.413+189.025+329.273+187.999C330.133+186.972+330.668+185.797+330.878+184.473L325.738+184.473L325.738+180.948L335.925+180.948L335.925+181.857C335.925+184.516+335.319+186.836+334.107+188.815C332.894+190.794+331.221+192.309+329.088+193.361C326.954+194.412+324.557+194.938+321.898+194.938C318.867+194.938+316.211+194.329+313.928+193.11C311.646+191.892+309.896+190.188+308.677+187.999C307.459+185.809+306.85+183.267+306.85+180.373C306.85+177.614+307.459+175.146+308.677+172.969C309.896+170.792+311.575+169.094+313.715+167.876C315.855+166.658+318.279+166.048+320.988+166.048C324.823+166.048+328.095+167.23+330.804+169.592Z" opacity="1"/>
<path opacity="1" d="M120.811+220.284L120.811+215.608L108.843+215.608L108.843+223.939L119.253+223.939L119.253+227.427L108.843+227.427L108.843+236.593L120.811+236.593L120.811+231.491L124.262+231.491L124.262+240.082L101.013+240.082L101.013+236.593L104.613+236.593L104.613+215.608L101.013+215.608L101.013+212.12L124.262+212.12L124.262+220.284L120.811+220.284Z" fill="#ffffff"/>
<path opacity="1" d="M134.672+215.608L139.589+222.937L144.45+215.608L141.221+215.608L141.221+212.12L151.964+212.12L151.964+215.608L148.476+215.608L141.555+225.869L149.089+236.593L152.688+236.593L152.688+240.082L141.221+240.082L141.221+236.593L144.487+236.593L139.31+228.949L134.189+236.593L137.603+236.593L137.603+240.082L126.47+240.082L126.47+236.593L130.163+236.593L137.343+225.98L130.2+215.608L126.619+215.608L126.619+212.12L137.863+212.12L137.863+215.608L134.672+215.608Z" fill="#ffffff"/>
<path d="M175.974+220.748C175.974+223.296+175.189+225.362+173.618+226.945C172.047+228.528+169.387+229.332+165.639+229.357L161.965+229.357L161.965+236.593L165.602+236.593L165.602+240.082L154.247+240.082L154.247+236.593L157.735+236.593L157.735+215.608L154.247+215.608L154.247+212.12L164.656+212.12C167.464+212.12+169.693+212.423+171.345+213.029C172.996+213.635+174.181+214.56+174.898+215.803C175.616+217.046+175.974+218.694+175.974+220.748ZM171.688+220.655C171.688+218.911+171.175+217.634+170.148+216.823C169.121+216.013+167.365+215.608+164.879+215.608L161.965+215.608L161.965+225.98L164.582+225.98C166.301+225.98+167.674+225.822+168.701+225.507C169.728+225.191+170.482+224.647+170.964+223.874C171.447+223.101+171.688+222.028+171.688+220.655Z" opacity="1" fill="#ffffff"/>
<path fill="#ffffff" opacity="1" d="M185.456+215.608L185.456+236.593L194.64+236.593L194.64+227.928L198.11+227.928L198.11+240.082L177.626+240.082L177.626+236.593L181.225+236.593L181.225+215.608L177.626+215.608L177.626+212.12L189.055+212.12L189.055+215.608L185.456+215.608Z"/>
<path opacity="1" d="M230.172+226.017C230.172+228.862+229.545+231.392+228.289+233.606C227.034+235.82+225.299+237.53+223.085+238.736C220.87+239.942+218.353+240.545+215.533+240.545C212.75+240.545+210.276+239.918+208.111+238.662C205.946+237.407+204.261+235.669+203.055+233.448C201.849+231.228+201.246+228.726+201.246+225.943C201.246+223.184+201.861+220.723+203.092+218.558C204.323+216.393+206.02+214.702+208.185+213.483C210.35+212.265+212.811+211.656+215.57+211.656C218.44+211.656+220.982+212.284+223.196+213.539C225.41+214.795+227.126+216.511+228.345+218.688C229.563+220.865+230.172+223.308+230.172+226.017ZM215.7+236.816C217.617+236.816+219.33+236.315+220.839+235.313C222.349+234.311+223.514+232.981+224.337+231.324C225.16+229.666+225.571+227.897+225.571+226.017C225.571+224.1+225.135+222.322+224.263+220.683C223.391+219.044+222.188+217.751+220.654+216.805C219.12+215.858+217.388+215.385+215.459+215.385C213.566+215.385+211.89+215.846+210.43+216.768C208.971+217.689+207.842+218.96+207.044+220.581C206.246+222.201+205.847+224.001+205.847+225.98C205.847+228.083+206.246+229.957+207.044+231.602C207.842+233.247+208.989+234.528+210.486+235.443C211.983+236.358+213.721+236.816+215.7+236.816Z" fill="#ffffff"/>
<path fill="#ffffff" opacity="1" d="M254.294+219.449C254.294+221.242+253.786+222.748+252.772+223.967C251.758+225.185+250.341+226.023+248.523+226.481L253.459+236.593L256.873+236.593L256.873+240.082L250.601+240.082L244.422+227.056L240.507+227.056L240.507+236.593L244.07+236.593L244.07+240.082L232.492+240.082L232.492+236.593L236.277+236.593L236.277+215.608L232.492+215.608L232.492+212.12L244.107+212.12C247.707+212.12+250.304+212.707+251.9+213.882C253.496+215.057+254.294+216.913+254.294+219.449ZM249.933+219.375C249.933+218.076+249.525+217.123+248.709+216.517C247.892+215.911+246.6+215.608+244.831+215.608L240.507+215.608L240.507+223.549L244.571+223.549C246.389+223.549+247.738+223.234+248.616+222.603C249.494+221.972+249.933+220.896+249.933+219.375Z"/>
<path fill="#ffffff" opacity="1" d="M277.71+220.284L277.71+215.608L265.742+215.608L265.742+223.939L276.151+223.939L276.151+227.427L265.742+227.427L265.742+236.593L277.71+236.593L277.71+231.491L281.161+231.491L281.161+240.082L257.912+240.082L257.912+236.593L261.511+236.593L261.511+215.608L257.912+215.608L257.912+212.12L281.161+212.12L281.161+220.284L277.71+220.284Z"/>
<path d="M304.762+219.449C304.762+221.242+304.255+222.748+303.241+223.967C302.227+225.185+300.81+226.023+298.992+226.481L303.927+236.593L307.341+236.593L307.341+240.082L301.07+240.082L294.891+227.056L290.976+227.056L290.976+236.593L294.539+236.593L294.539+240.082L282.961+240.082L282.961+236.593L286.746+236.593L286.746+215.608L282.961+215.608L282.961+212.12L294.576+212.12C298.175+212.12+300.773+212.707+302.369+213.882C303.964+215.057+304.762+216.913+304.762+219.449ZM300.402+219.375C300.402+218.076+299.994+217.123+299.177+216.517C298.361+215.911+297.068+215.608+295.299+215.608L290.976+215.608L290.976+223.549L295.04+223.549C296.858+223.549+298.206+223.234+299.085+222.603C299.963+221.972+300.402+220.896+300.402+219.375Z" opacity="1" fill="#ffffff"/>
</g>
</g>
</svg>
